<?xml version="1.0" standalone="no"?>
<!DOCTYPE svg PUBLIC "-//W3C//DTD SVG 20010904//EN"
 "http://www.w3.org/TR/2001/REC-SVG-20010904/DTD/svg10.dtd">
<svg version="1.0" xmlns="http://www.w3.org/2000/svg"
 width="210.000000pt" height="209.000000pt" viewBox="0 0 210.000000 209.000000"
 preserveAspectRatio="xMidYMid meet">

<g transform="translate(0.000000,209.000000) scale(0.100000,-0.100000)"
fill="#fff" stroke="none">
<path d="M570 2083 c-8 -3 -135 -110 -283 -236 l-267 -230 0 -761 c0 -584 3
-767 13 -785 6 -13 25 -34 40 -45 28 -21 35 -21 765 -24 502 -2 749 0 774 8
20 6 48 24 62 41 l26 31 0 962 0 963 -22 28 c-43 55 -44 55 -590 54 -277 0
-510 -3 -518 -6z m1038 -95 c17 -17 17 -1869 0 -1886 -17 -17 -1479 -17 -1496
0 -9 9 -12 188 -12 743 l0 731 232 199 c127 110 237 204 245 208 11 7 13 -31
13 -208 l0 -215 -150 0 -150 0 0 -40 0 -40 190 0 190 0 0 260 0 260 463 0
c347 0 466 -3 475 -12z"/>
<path d="M422 1168 c-16 -16 -15 -43 2 -57 9 -8 139 -10 462 -9 l449 3 3 23
c8 53 14 52 -462 52 -330 0 -445 -3 -454 -12z"/>
<path d="M422 938 c-7 -7 -12 -19 -12 -28 0 -39 11 -40 432 -40 397 0 408 1
418 20 8 14 8 26 0 40 -10 19 -21 20 -418 20 -304 0 -411 -3 -420 -12z"/>
<path d="M414 695 c-14 -56 -21 -55 461 -55 477 0 471 -1 463 52 l-3 23 -457
3 -458 2 -6 -25z"/>
</g>
</svg>
